<svg width="169" height="51" viewBox="0 0 169 51" fill="none" xmlns="http://www.w3.org/2000/svg">
<path d="M68.1399 13.8C69.7866 13.8 71.2166 14.0773 72.4299 14.632C73.6433 15.1693 74.5793 15.9493 75.2379 16.972C75.8966 17.9773 76.2259 19.1647 76.2259 20.534C76.2259 21.9033 75.8966 23.0907 75.2379 24.096C74.5793 25.1013 73.6433 25.8813 72.4299 26.436C71.2166 26.9733 69.7866 27.242 68.1399 27.242H64.9679V32H59.8199V13.8H68.1399ZM67.8279 23.186C68.8853 23.186 69.6826 22.9607 70.2199 22.51C70.7573 22.042 71.0259 21.3833 71.0259 20.534C71.0259 19.6847 70.7573 19.026 70.2199 18.558C69.6826 18.09 68.8853 17.856 67.8279 17.856H64.9679V23.186H67.8279ZM90.0159 28.464H82.3199L80.8899 32H75.6379L83.6719 13.8H88.7419L96.8019 32H91.4459L90.0159 28.464ZM88.5079 24.668L86.1679 18.844L83.8279 24.668H88.5079ZM106.581 13.8C108.228 13.8 109.658 14.0773 110.871 14.632C112.085 15.1693 113.021 15.9493 113.679 16.972C114.338 17.9773 114.667 19.1647 114.667 20.534C114.667 21.9033 114.338 23.0907 113.679 24.096C113.021 25.1013 112.085 25.8813 110.871 26.436C109.658 26.9733 108.228 27.242 106.581 27.242H103.409V32H98.2613V13.8H106.581ZM106.269 23.186C107.327 23.186 108.124 22.9607 108.661 22.51C109.199 22.042 109.467 21.3833 109.467 20.534C109.467 19.6847 109.199 19.026 108.661 18.558C108.124 18.09 107.327 17.856 106.269 17.856H103.409V23.186H106.269ZM131.789 28.022V32H117.177V13.8H131.451V17.778H122.273V20.846H130.359V24.694H122.273V28.022H131.789ZM142.602 27.164H139.794V32H134.646V13.8H142.966C144.613 13.8 146.043 14.0773 147.256 14.632C148.469 15.1693 149.405 15.9493 150.064 16.972C150.723 17.9773 151.052 19.1647 151.052 20.534C151.052 21.8513 150.74 23.004 150.116 23.992C149.509 24.9627 148.634 25.7253 147.49 26.28L151.416 32H145.904L142.602 27.164ZM145.852 20.534C145.852 19.6847 145.583 19.026 145.046 18.558C144.509 18.09 143.711 17.856 142.654 17.856H139.794V23.186H142.654C143.711 23.186 144.509 22.9607 145.046 22.51C145.583 22.042 145.852 21.3833 145.852 20.534ZM160.288 32.364C158.815 32.364 157.385 32.182 155.998 31.818C154.612 31.454 153.485 30.9687 152.618 30.362L154.308 26.566C155.123 27.1033 156.068 27.5367 157.142 27.866C158.217 28.1953 159.274 28.36 160.314 28.36C162.29 28.36 163.278 27.866 163.278 26.878C163.278 26.358 162.992 25.9767 162.42 25.734C161.866 25.474 160.964 25.2053 159.716 24.928C158.347 24.6333 157.203 24.3213 156.284 23.992C155.366 23.6453 154.577 23.0993 153.918 22.354C153.26 21.6087 152.93 20.6033 152.93 19.338C152.93 18.2287 153.234 17.232 153.84 16.348C154.447 15.4467 155.348 14.736 156.544 14.216C157.758 13.696 159.24 13.436 160.99 13.436C162.186 13.436 163.365 13.5747 164.526 13.852C165.688 14.112 166.71 14.502 167.594 15.022L166.008 18.844C164.275 17.908 162.594 17.44 160.964 17.44C159.942 17.44 159.196 17.596 158.728 17.908C158.26 18.2027 158.026 18.5927 158.026 19.078C158.026 19.5633 158.304 19.9273 158.858 20.17C159.413 20.4127 160.306 20.664 161.536 20.924C162.923 21.2187 164.067 21.5393 164.968 21.886C165.887 22.2153 166.676 22.7527 167.334 23.498C168.01 24.226 168.348 25.2227 168.348 26.488C168.348 27.58 168.045 28.568 167.438 29.452C166.832 30.336 165.922 31.0467 164.708 31.584C163.495 32.104 162.022 32.364 160.288 32.364Z" fill="#7247C4"/>
<rect width="25" height="25" rx="3" transform="matrix(-0.819152 -0.573576 0.873856 -0.486185 24.05 42.1704)" fill="#7247C4" fill-opacity="0.2"/>
<rect width="25" height="25" rx="3" transform="matrix(-0.819152 -0.573576 0.873856 -0.486185 24.05 33.698)" fill="#7247C4"/>
</svg>
