<svg width="86" height="86" viewBox="0 0 86 86" fill="none" xmlns="http://www.w3.org/2000/svg">
<path d="M76.25 46.5C75.284 46.5 74.5 45.716 74.5 44.75V30.75C74.5 29.784 75.284 29 76.25 29C77.216 29 78 29.784 78 30.75V44.75C78 45.716 77.216 46.5 76.25 46.5Z" fill="#7247C4" stroke="#7247C4" stroke-width="1.4"/>
<path d="M9.75012 71C8.78412 71 8.00012 70.216 8.00012 69.25V30.75C8.00012 29.784 8.78412 29 9.75012 29C10.7161 29 11.5001 29.784 11.5001 30.75V69.25C11.5001 70.216 10.7161 71 9.75012 71Z" fill="#7247C4" stroke="#7247C4" stroke-width="1.4"/>
<path d="M37.75 71H2.75C1.784 71 1 70.216 1 69.25C1 68.284 1.784 67.5 2.75 67.5H37.75C38.716 67.5 39.5 68.284 39.5 69.25C39.5 70.216 38.716 71 37.75 71Z" fill="#7247C4" stroke="#7247C4" stroke-width="1.4"/>
<path d="M73.6249 32.5C67.3529 32.5 62.2499 27.397 62.2499 21.125V2.74999C62.2499 1.78399 63.0339 0.999992 63.9999 0.999992H76.2499C81.0764 0.999992 84.9999 4.92699 84.9999 9.74999V21.125C84.9999 27.397 79.8969 32.5 73.6249 32.5ZM65.7499 4.49999V21.125C65.7499 25.4685 69.2849 29 73.6249 29C77.9649 29 81.4999 25.4685 81.4999 21.125V9.74999C81.4999 6.85549 79.1444 4.49999 76.2499 4.49999H65.7499Z" fill="#7247C4" stroke="#7247C4" stroke-width="1.4"/>
<path d="M53.4999 32.5C46.7449 32.5 41.2499 27.005 41.2499 20.25V2.74999C41.2499 1.78399 42.0339 0.999992 42.9999 0.999992H63.9999C64.9659 0.999992 65.7499 1.78399 65.7499 2.74999V20.25C65.7499 27.005 60.2549 32.5 53.4999 32.5ZM44.7499 4.49999V20.25C44.7499 25.073 48.6734 29 53.4999 29C58.3264 29 62.2499 25.073 62.2499 20.25V4.49999H44.7499Z" fill="#7247C4" stroke="#7247C4" stroke-width="1.4"/>
<path d="M32.4999 32.5C25.7449 32.5 20.2499 27.005 20.2499 20.25V2.74999C20.2499 1.78399 21.0339 0.999992 21.9999 0.999992H42.9999C43.9659 0.999992 44.7499 1.78399 44.7499 2.74999V20.25C44.7499 27.005 39.2549 32.5 32.4999 32.5ZM23.7499 4.49999V20.25C23.7499 25.073 27.6734 29 32.4999 29C37.3264 29 41.2499 25.073 41.2499 20.25V4.49999H23.7499Z" fill="#7247C4" stroke="#7247C4" stroke-width="1.4"/>
<path d="M12.375 32.5C6.103 32.5 1 27.397 1 21.125V9.75C1 4.927 4.9235 1 9.75 1H22C22.966 1 23.75 1.784 23.75 2.75V21.125C23.75 27.397 18.647 32.5 12.375 32.5ZM9.75 4.5C6.8555 4.5 4.5 6.8555 4.5 9.75V21.125C4.5 25.4685 8.035 29 12.375 29C16.715 29 20.25 25.4685 20.25 21.125V4.5H9.75Z" fill="#7247C4" stroke="#7247C4" stroke-width="1.4"/>
<path d="M69.2499 85C67.8324 85 66.5024 84.4435 65.5119 83.432L49.0479 67.5455C47.3924 65.869 46.4999 63.6885 46.4999 61.375V50C46.4999 48.0715 48.0679 46.5 49.9999 46.5H61.3749C63.6884 46.5 65.8689 47.3925 67.5174 49.0165L83.4669 65.54C84.4469 66.506 84.9999 67.8325 84.9999 69.25C84.9999 70.65 84.4539 71.9695 83.4634 72.9635L72.9634 83.4635C71.9729 84.454 70.6534 85 69.2499 85ZM49.9999 50V61.375C49.9999 62.761 50.5354 64.07 51.5119 65.057L67.9759 80.947C68.7004 81.682 69.8274 81.654 70.4854 80.989L80.9889 70.489C81.3179 70.1565 81.4999 69.7155 81.4999 69.25C81.4999 68.7775 81.3144 68.333 80.9784 68.004L65.0289 51.4805C64.0734 50.5355 62.7609 50 61.3749 50H49.9999Z" fill="#E64980" stroke="#E64980" stroke-width="1.4"/>
</svg>
