<svg width="84" height="84" viewBox="0 0 84 84" fill="none" xmlns="http://www.w3.org/2000/svg">
<path d="M74.1216 9.53674e-06H9.87848C8.51922 9.53674e-06 7.41724 1.10199 7.41724 2.46125V12.3448C7.41724 13.704 8.51922 14.806 9.87848 14.806H21.0071V22.2283C21.0071 23.5876 22.109 24.6895 23.4683 24.6895H38.6125L32.8522 42.4182H10.8234C8.44505 42.4182 7.45383 45.4734 9.37671 46.8706L27.1982 59.8186L20.3909 80.7692C19.656 83.0314 22.2556 84.9177 24.1784 83.521L42 70.573L59.8215 83.521C61.7455 84.9192 64.3434 83.0295 63.6088 80.7692L56.8017 59.8186L74.6232 46.8706C76.5476 45.4727 75.5532 42.4182 73.1767 42.4182H51.1481L45.3876 24.6895H60.5318C61.891 24.6895 62.993 23.5876 62.993 22.2283V14.806H74.1216C75.4809 14.806 76.5828 13.704 76.5828 12.3448V2.46125C76.5828 1.10199 75.4809 9.53674e-06 74.1216 9.53674e-06V9.53674e-06ZM49.3599 47.3408H65.6016L52.4617 56.8875C51.599 57.5141 51.238 58.6251 51.5676 59.6393L56.5866 75.0864L43.4467 65.5396C42.5841 64.9128 41.416 64.9129 40.5534 65.5396L27.4135 75.0864L32.4325 59.6393C32.7619 58.6253 32.4011 57.5143 31.5384 56.8875L18.3985 47.3408H34.6404C35.7067 47.3408 36.6517 46.6541 36.9812 45.6401L42.0001 30.193L47.0193 45.6401C47.3486 46.6541 48.2937 47.3408 49.3599 47.3408ZM58.0705 19.7672H25.9295V14.806H58.0705V19.7672ZM71.6604 9.88353C71.1822 9.88353 13.4765 9.88353 12.3397 9.88353V4.92249H71.6604V9.88353Z" fill="#7247C4"/>
<path d="M35.8325 54.3499C35.8325 55.7092 36.9345 56.8112 38.2938 56.8112H45.7064C47.0656 56.8112 48.1676 55.7092 48.1676 54.3499C48.1676 52.9907 47.0656 51.8887 45.7064 51.8887H38.2938C36.9345 51.8887 35.8325 52.9907 35.8325 54.3499Z" fill="#E64980"/>
</svg>
