<svg width="76" height="84" viewBox="0 0 76 84" fill="none" xmlns="http://www.w3.org/2000/svg">
<path d="M53.8253 36.0938C53.8253 34.2815 52.3563 32.8125 50.5441 32.8125H16.7472C14.935 32.8125 13.4659 34.2815 13.4659 36.0938C13.4659 37.906 14.935 39.375 16.7472 39.375H50.5441C52.3563 39.375 53.8253 37.906 53.8253 36.0938Z" fill="#7247C4"/>
<path d="M16.7472 45.9375C14.935 45.9375 13.4659 47.4065 13.4659 49.2188C13.4659 51.031 14.935 52.5 16.7472 52.5H37.2732C39.0854 52.5 40.5545 51.031 40.5545 49.2188C40.5545 47.4065 39.0854 45.9375 37.2732 45.9375H16.7472Z" fill="#7247C4"/>
<path d="M24.4583 77.4375H13.4843C9.86575 77.4375 6.92181 74.4936 6.92181 70.875V13.125C6.92181 9.50644 9.86575 6.5625 13.4843 6.5625H53.8255C57.444 6.5625 60.388 9.50644 60.388 13.125V33.3047C60.388 35.1169 61.857 36.5859 63.6692 36.5859C65.4815 36.5859 66.9505 35.1169 66.9505 33.3047V13.125C66.9505 5.88788 61.0626 0 53.8255 0H13.4843C6.24719 0 0.359314 5.88788 0.359314 13.125V70.875C0.359314 78.1121 6.24719 84 13.4843 84H24.4583C26.2705 84 27.7395 82.531 27.7395 80.7188C27.7395 78.9065 26.2705 77.4375 24.4583 77.4375Z" fill="#7247C4"/>
<path d="M72.7622 47.5079C68.9242 43.6698 62.6793 43.6697 58.8437 47.5053L40.8291 65.48C40.4465 65.8617 40.1643 66.3319 40.0072 66.8491L36.0839 79.7649C35.7361 80.91 36.0392 82.1535 36.8749 83.01C37.501 83.6517 38.3515 84 39.2238 84C39.5156 84 39.8103 83.9609 40.0995 83.8807L53.3435 80.2121C53.8885 80.0612 54.3853 79.7719 54.7856 79.3723L72.7624 61.4293C76.6005 57.5912 76.6005 51.3463 72.7622 47.5079ZM50.7602 74.1182L44.0972 75.9639L46.0471 69.5443L58.2024 57.416L62.8437 62.0573L50.7602 74.1182ZM68.1244 56.787L67.4886 57.4214L62.8481 52.7809L63.4817 52.1486C64.7611 50.8692 66.8427 50.8692 68.1221 52.1486C69.4014 53.4279 69.4014 55.5096 68.1244 56.787Z" fill="#E64980"/>
<path d="M50.5441 19.6875H16.7472C14.935 19.6875 13.4659 21.1565 13.4659 22.9688C13.4659 24.781 14.935 26.25 16.7472 26.25H50.5441C52.3563 26.25 53.8253 24.781 53.8253 22.9688C53.8253 21.1565 52.3563 19.6875 50.5441 19.6875Z" fill="#7247C4"/>
</svg>
