<svg width="68" height="84" viewBox="0 0 68 84" fill="none" xmlns="http://www.w3.org/2000/svg">
<path d="M29.2571 42.4576C30.1632 42.4576 30.8977 41.7229 30.8977 40.8169V38.9448C30.8977 38.0389 30.1632 37.3042 29.2571 37.3042C28.351 37.3042 27.6165 38.0389 27.6165 38.9448V40.8169C27.6165 41.723 28.351 42.4576 29.2571 42.4576Z" fill="#E64980" stroke="#E64980"/>
<path d="M38.7435 42.4576C39.6496 42.4576 40.3842 41.7229 40.3842 40.8169V38.9448C40.3842 38.0389 39.6496 37.3042 38.7435 37.3042C37.8374 37.3042 37.1029 38.0389 37.1029 38.9448V40.8169C37.1029 41.723 37.8374 42.4576 38.7435 42.4576Z" fill="#E64980" stroke="#E64980"/>
<path d="M28.402 46.0549C29.0427 45.4144 30.0815 45.4144 30.7223 46.0549C32.5298 47.8625 35.4705 47.8625 37.2779 46.0549C37.5984 45.7346 38.0182 45.5743 38.438 45.5743C38.8579 45.5743 39.2779 45.7346 39.5981 46.0549C40.2388 46.6955 40.2388 47.7344 39.5981 48.3752C36.5113 51.4619 31.4888 51.4619 28.402 48.3752C27.7613 47.7344 27.7613 46.6955 28.402 46.0549Z" fill="#E64980" stroke="#E64980"/>
<path d="M61.7296 10.9751H59.6268C58.7701 9.03735 56.8294 7.68187 54.5781 7.68187H41.8082C41.806 7.55554 41.8011 7.42922 41.7929 7.30272C41.545 3.4179 38.4313 0.286769 34.5502 0.01902C32.3595 -0.130933 30.2726 0.606691 28.6735 2.09949C27.1277 3.54258 26.2278 5.57072 26.1922 7.68171H13.4223C11.171 7.68171 9.23035 9.03719 8.37361 10.9749H6.27083C3.22009 10.9749 0.738159 13.4575 0.738159 16.5091V78.4657C0.738159 81.5174 3.22009 83.9998 6.27083 83.9998H61.7296C64.7803 83.9998 67.2623 81.5172 67.2623 78.4657V16.5092C67.2623 13.4575 64.7803 10.9751 61.7296 10.9751ZM11.1866 21.4263H56.8138V73.5487H11.1866V21.4263ZM11.1866 13.1988C11.1866 11.9659 12.1895 10.963 13.4223 10.963H28.0181C28.5237 10.963 29.0012 10.7298 29.312 10.3308C29.6229 9.93198 29.7325 9.41207 29.609 8.92169C29.5183 8.56141 29.4723 8.18784 29.4723 7.81132C29.4723 6.54148 29.9837 5.36482 30.9123 4.49808C31.8393 3.63282 33.0509 3.20544 34.3245 3.29239C36.5718 3.44726 38.3748 5.26113 38.5184 7.51141C38.5489 7.99064 38.5061 8.4651 38.3913 8.92169C38.2679 9.41207 38.3775 9.93198 38.6884 10.3308C38.9993 10.7298 39.4767 10.963 39.9823 10.963H54.5781C55.8109 10.963 56.8138 11.9659 56.8138 13.1988V18.1449H11.1866V13.1988ZM63.981 78.4658C63.981 79.7081 62.971 80.7187 61.7296 80.7187H6.27083C5.02937 80.7187 4.0194 79.7081 4.0194 78.4658V16.5092C4.0194 15.267 5.02937 14.2563 6.27083 14.2563H7.90538V75.1893C7.90538 76.0953 8.63989 76.83 9.546 76.83H58.4544C59.3605 76.83 60.095 76.0953 60.095 75.1893V14.2563H61.7296C62.971 14.2563 63.981 15.267 63.981 16.5092V78.4658Z" fill="#7247C4" stroke="#7247C4"/>
<path d="M43.1738 64.8398H24.8267C23.9205 64.8398 23.186 65.5745 23.186 66.4804C23.186 67.3864 23.9205 68.121 24.8267 68.121H43.1738C44.0799 68.121 44.8144 67.3864 44.8144 66.4804C44.8144 65.5745 44.0799 64.8398 43.1738 64.8398Z" fill="#E64980" stroke="#E64980"/>
</svg>
